<svg id="Solid" height="512" viewBox="0 0 512 512" width="512" xmlns="http://www.w3.org/2000/svg"><path d="m408 96h32v48h-32z"/><path d="m392 64h64v16h-64z"/><path d="m378.783 224h90.434a48.262 48.262 0 0 0 -24.651-27.377 8 8 0 0 1 -4.566-7.223v-29.4h-32v29.4a8 8 0 0 1 -4.566 7.227 48.262 48.262 0 0 0 -24.651 27.373z"/><path d="m448 40a8.009 8.009 0 0 0 -8-8h-32a8.009 8.009 0 0 0 -8 8v8h48z"/><path d="m376 240h96v192h-96z"/><path d="m216 471.507a8.5 8.5 0 0 0 8.492 8.493h95.016a8.5 8.5 0 0 0 8.492-8.493v-207.507a55.737 55.737 0 0 0 -21.241-43.888 8 8 0 0 1 -2.967-5.275l-14.857-118.861c-.311.012-.622.024-.935.024h-32c-.314 0-.624-.012-.935-.024l-14.857 118.861a8 8 0 0 1 -2.967 5.275 55.737 55.737 0 0 0 -21.241 43.888zm25.982-176.457c7.518-15.033 18.178-23.312 30.018-23.312s22.5 8.279 30.018 23.312c6.606 13.213 10.245 30.6 10.245 48.95s-3.639 35.737-10.245 48.95c-7.518 15.033-18.178 23.312-30.018 23.312s-22.5-8.279-30.018-23.312c-6.606-13.213-10.244-30.6-10.244-48.95s3.638-35.737 10.244-48.95z"/><path d="m104 288a16.019 16.019 0 0 0 -16 16v80a16 16 0 0 0 32 0v-80a16.019 16.019 0 0 0 -16-16z"/><path d="m168 256h-128v176h128zm-32 128a32 32 0 0 1 -64 0v-80a32 32 0 0 1 64 0z"/><path d="m48 480h112a8.009 8.009 0 0 0 8-8v-24h-128v24a8.009 8.009 0 0 0 8 8z"/><path d="m40 224h128v16h-128z"/><path d="m272 399.738c11.2 0 23.737-23.837 23.737-55.738s-12.532-55.738-23.737-55.738-23.738 23.838-23.738 55.738 12.538 55.738 23.738 55.738z"/><path d="m376 472a8.009 8.009 0 0 0 8 8h80a8.009 8.009 0 0 0 8-8v-24h-96z"/><path d="m124.687 176h-41.374l-32 32h105.374z"/><path d="m256 80h32a8.009 8.009 0 0 0 8-8v-8h-48v8a8.009 8.009 0 0 0 8 8z"/><path d="m122.087 160c2.235-7.681 5.913-21.857 5.913-32 0-10.167-3.675-24.327-5.911-32h-36.176c-2.235 7.681-5.913 21.857-5.913 32 0 10.167 3.675 24.327 5.911 32z"/><path d="m80 64h48v16h-48z"/><path d="m128 40a8.009 8.009 0 0 0 -8-8h-32a8.009 8.009 0 0 0 -8 8v8h48z"/><path d="m299.27 38.06a7.99 7.99 0 0 0 -7.762-6.06h-39.016a7.99 7.99 0 0 0 -7.761 6.06l-2.485 9.94h59.508z"/></svg>